<svg width="36" height="33" viewBox="0 0 36 33" fill="none" xmlns="http://www.w3.org/2000/svg">
<path d="M26.25 0.875488C24.5609 0.901761 22.9087 1.37327 21.4601 2.24239C20.0116 3.11152 18.818 4.34749 18 5.82549C17.182 4.34749 15.9884 3.11152 14.5399 2.24239C13.0913 1.37327 11.4391 0.901761 9.75 0.875488C7.05741 0.992474 4.52056 2.17037 2.69367 4.15184C0.866788 6.1333 -0.101627 8.75728 -1.52877e-06 11.4505C-1.52877e-06 18.271 7.179 25.72 13.2 30.7705C14.5443 31.9002 16.244 32.5195 18 32.5195C19.756 32.5195 21.4557 31.9002 22.8 30.7705C28.821 25.72 36 18.271 36 11.4505C36.1016 8.75728 35.1332 6.1333 33.3063 4.15184C31.4794 2.17037 28.9426 0.992474 26.25 0.875488ZM20.8725 28.4755C20.0685 29.1526 19.0511 29.5238 18 29.5238C16.9489 29.5238 15.9315 29.1526 15.1275 28.4755C7.4205 22.009 3 15.805 3 11.4505C2.89746 9.55256 3.54955 7.69108 4.81404 6.27204C6.07854 4.85299 7.85285 3.99151 9.75 3.87549C11.6471 3.99151 13.4215 4.85299 14.686 6.27204C15.9504 7.69108 16.6025 9.55256 16.5 11.4505C16.5 11.8483 16.658 12.2298 16.9393 12.5111C17.2206 12.7925 17.6022 12.9505 18 12.9505C18.3978 12.9505 18.7794 12.7925 19.0607 12.5111C19.342 12.2298 19.5 11.8483 19.5 11.4505C19.3975 9.55256 20.0495 7.69108 21.314 6.27204C22.5785 4.85299 24.3528 3.99151 26.25 3.87549C28.1471 3.99151 29.9215 4.85299 31.186 6.27204C32.4504 7.69108 33.1025 9.55256 33 11.4505C33 15.805 28.5795 22.009 20.8725 28.4695V28.4755Z" fill="black"/>
</svg>
